<?xml version="1.0" encoding="UTF-8"?>
<svg width="357px" height="50px" viewBox="0 0 357 50" version="1.1" xmlns="http://www.w3.org/2000/svg" xmlns:xlink="http://www.w3.org/1999/xlink">
    <title>logo-insurance-app</title>
    <g id="Page-1" stroke="none" stroke-width="1" fill="none" fill-rule="evenodd">
        <g id="logo-insurance-app" transform="translate(1.000000, 1.000000)" fill="#008DD2" fill-rule="nonzero">
            <g id="noun_Car_2927089" stroke="#008DD2" stroke-width="2">
                <path d="M71.64,17.76 L68.76,17.76 L61.8,6.94 C59.35,3.13 55.11,0.86 50.47,0.86 L37.26,0.89 C16.78,0.93 0.07,17.63 0,38.11 L0,39.11 L10.09,39.11 C10.98,43.68 15,47.14 19.82,47.14 C24.64,47.14 28.67,43.68 29.56,39.11 L57.68,39.11 C58.57,43.68 62.59,47.14 67.41,47.14 C72.23,47.14 76.26,43.68 77.15,39.11 L92,39.11 L92,38.11 C92,26.89 82.87,17.76 71.64,17.76 Z M77.33,37.11 C77.27,31.69 72.85,27.3 67.41,27.3 C61.97,27.3 57.55,31.69 57.49,37.11 L29.74,37.11 C29.68,31.69 25.26,27.3 19.82,27.3 C14.38,27.3 9.96,31.69 9.9,37.11 L2.02,37.11 C2.22,30.77 4.11,24.84 7.25,19.75 L71.65,19.75 C81.44,19.75 89.46,27.45 89.98,37.11 L77.33,37.11 Z M75.1,39.11 C74.25,42.56 71.13,45.14 67.42,45.14 C63.71,45.14 60.59,42.57 59.74,39.11 C59.66,38.78 59.59,38.45 59.56,38.11 C59.53,37.82 59.51,37.52 59.51,37.22 C59.51,37.18 59.51,37.15 59.52,37.11 C59.58,32.79 63.1,29.3 67.44,29.3 C71.77,29.3 75.3,32.8 75.36,37.11 C75.36,37.15 75.37,37.18 75.37,37.22 C75.37,37.52 75.35,37.82 75.32,38.11 C75.24,38.45 75.18,38.79 75.1,39.11 Z M27.51,39.11 C26.66,42.56 23.54,45.14 19.83,45.14 C16.12,45.14 13,42.57 12.15,39.11 C12.07,38.78 12,38.45 11.97,38.11 C11.94,37.82 11.92,37.52 11.92,37.22 C11.92,37.18 11.92,37.15 11.93,37.11 C11.99,32.79 15.51,29.3 19.85,29.3 C24.18,29.3 27.71,32.8 27.77,37.11 C27.77,37.15 27.78,37.18 27.78,37.22 C27.78,37.52 27.76,37.82 27.73,38.11 C27.66,38.45 27.59,38.79 27.51,39.11 Z M38.71,2.89 L38.71,17.76 L8.57,17.76 C14.98,8.79 25.45,2.92 37.26,2.89 L38.71,2.89 Z M50.47,2.86 C54.43,2.86 58.04,4.79 60.12,8.02 L66.39,17.75 L40.71,17.75 L40.71,2.88 L50.47,2.86 Z" id="Shape"></path>
            </g>
            <path d="M127.531,38 L127.531,10.526 L122.401,10.526 L122.401,38 L127.531,38 Z M138.133,38 L138.133,23.902 C138.766333,23.2686667 139.437667,22.7683333 140.147,22.401 C140.856333,22.0336667 141.616333,21.85 142.427,21.85 C143.529,21.85 144.3555,22.1761667 144.9065,22.8285 C145.4575,23.4808333 145.733,24.4023333 145.733,25.593 L145.733,25.593 L145.733,38 L150.426,38 L150.426,25.593 C150.426,24.5036667 150.2835,23.5061667 149.9985,22.6005 C149.7135,21.6948333 149.2955,20.9158333 148.7445,20.2635 C148.1935,19.6111667 147.506333,19.1045 146.683,18.7435 C145.859667,18.3825 144.916,18.202 143.852,18.202 C143.193333,18.202 142.585333,18.2653333 142.028,18.392 C141.470667,18.5186667 140.948167,18.7023333 140.4605,18.943 C139.972833,19.1836667 139.5105,19.4686667 139.0735,19.798 C138.6365,20.1273333 138.221667,20.4946667 137.829,20.9 L137.829,20.9 L137.506,19.361 C137.316,18.791 136.917,18.506 136.309,18.506 L136.309,18.506 L133.44,18.506 L133.44,38 L138.133,38 Z M160.097,38.304 C161.351,38.304 162.4625,38.1425 163.4315,37.8195 C164.4005,37.4965 165.214333,37.0468333 165.873,36.4705 C166.531667,35.8941667 167.032,35.2101667 167.374,34.4185 C167.716,33.6268333 167.887,32.7623333 167.887,31.825 C167.887,31.0396667 167.750833,30.3683333 167.4785,29.811 C167.206167,29.2536667 166.845167,28.7755 166.3955,28.3765 C165.945833,27.9775 165.436,27.6481667 164.866,27.3885 C164.296,27.1288333 163.713333,26.8976667 163.118,26.695 C162.522667,26.4923333 161.94,26.3055 161.37,26.1345 C160.8,25.9635 160.290167,25.7703333 159.8405,25.555 C159.390833,25.3396667 159.029833,25.0895 158.7575,24.8045 C158.485167,24.5195 158.349,24.168 158.349,23.75 C158.349,23.1166667 158.615,22.6036667 159.147,22.211 C159.679,21.8183333 160.407333,21.622 161.332,21.622 C161.927333,21.622 162.4435,21.6853333 162.8805,21.812 C163.3175,21.9386667 163.707,22.0811667 164.049,22.2395 C164.391,22.3978333 164.691833,22.5403333 164.9515,22.667 C165.211167,22.7936667 165.455,22.857 165.683,22.857 C165.898333,22.857 166.075667,22.8158333 166.215,22.7335 C166.354333,22.6511667 166.487333,22.5086667 166.614,22.306 L166.614,22.306 L167.678,20.615 C166.943333,19.893 166.025,19.3103333 164.923,18.867 C163.821,18.4236667 162.598667,18.202 161.256,18.202 C160.052667,18.202 158.991833,18.3635 158.0735,18.6865 C157.155167,19.0095 156.388833,19.4401667 155.7745,19.9785 C155.160167,20.5168333 154.694667,21.147 154.378,21.869 C154.061333,22.591 153.903,23.351 153.903,24.149 C153.903,25.0103333 154.039167,25.745 154.3115,26.353 C154.583833,26.961 154.944833,27.474 155.3945,27.892 C155.844167,28.31 156.357167,28.6551667 156.9335,28.9275 C157.509833,29.1998333 158.098833,29.4373333 158.7005,29.64 C159.302167,29.8426667 159.891167,30.0295 160.4675,30.2005 C161.043833,30.3715 161.556833,30.5646667 162.0065,30.78 C162.456167,30.9953333 162.817167,31.2486667 163.0895,31.54 C163.361833,31.8313333 163.498,32.205 163.498,32.661 C163.498,32.965 163.437833,33.2595 163.3175,33.5445 C163.197167,33.8295 163.007167,34.0796667 162.7475,34.295 C162.487833,34.5103333 162.1585,34.6845 161.7595,34.8175 C161.3605,34.9505 160.882333,35.017 160.325,35.017 C159.615667,35.017 159.029833,34.9346667 158.5675,34.77 C158.105167,34.6053333 157.703,34.428 157.361,34.238 C157.019,34.048 156.718167,33.8706667 156.4585,33.706 C156.198833,33.5413333 155.923333,33.459 155.632,33.459 C155.340667,33.459 155.1,33.516 154.91,33.63 C154.72,33.744 154.555333,33.9086667 154.416,34.124 L154.416,34.124 L153.333,35.91 C153.713,36.252 154.153167,36.5686667 154.6535,36.86 C155.153833,37.1513333 155.6985,37.4046667 156.2875,37.62 C156.8765,37.8353333 157.490833,38.0031667 158.1305,38.1235 C158.770167,38.2438333 159.425667,38.304 160.097,38.304 Z M177.824,38.304 C178.47,38.304 179.074833,38.2375 179.6385,38.1045 C180.202167,37.9715 180.727833,37.7878333 181.2155,37.5535 C181.703167,37.3191667 182.162333,37.0341667 182.593,36.6985 C183.023667,36.3628333 183.441667,35.9923333 183.847,35.587 L183.847,35.587 L184.17,37.145 C184.36,37.715 184.759,38 185.367,38 L185.367,38 L188.236,38 L188.236,18.506 L183.543,18.506 L183.543,32.604 C182.909667,33.2373333 182.238333,33.7345 181.529,34.0955 C180.819667,34.4565 180.059667,34.637 179.249,34.637 C178.147,34.637 177.3205,34.3108333 176.7695,33.6585 C176.2185,33.0061667 175.943,32.0846667 175.943,30.894 L175.943,30.894 L175.943,18.506 L171.25,18.506 L171.25,30.894 C171.25,31.9833333 171.3925,32.9808333 171.6775,33.8865 C171.9625,34.7921667 172.383667,35.5743333 172.941,36.233 C173.498333,36.8916667 174.1855,37.4015 175.0025,37.7625 C175.8195,38.1235 176.76,38.304 177.824,38.304 Z M197.945,38 L197.945,25.859 C198.426333,24.8203333 199.015333,24.0318333 199.712,23.4935 C200.408667,22.9551667 201.244667,22.686 202.22,22.686 C202.764667,22.686 203.201667,22.7303333 203.531,22.819 C203.860333,22.9076667 204.12,22.952 204.31,22.952 C204.525333,22.952 204.696333,22.9045 204.823,22.8095 C204.949667,22.7145 205.032,22.553 205.07,22.325 L205.07,22.325 L205.678,18.81 C205.044667,18.3666667 204.246667,18.145 203.284,18.145 C202.118667,18.145 201.067333,18.4933333 200.13,19.19 C199.192667,19.8866667 198.375667,20.8366667 197.679,22.04 L197.679,22.04 L197.394,19.684 C197.330667,19.2533333 197.204,18.9493333 197.014,18.772 C196.824,18.5946667 196.488333,18.506 196.007,18.506 L196.007,18.506 L193.252,18.506 L193.252,38 L197.945,38 Z M213.468,38.304 C214.164667,38.304 214.798,38.247 215.368,38.133 C215.938,38.019 216.476333,37.848 216.983,37.62 C217.489667,37.392 217.9805,37.1101667 218.4555,36.7745 C218.9305,36.4388333 219.415,36.0493333 219.909,35.606 L219.909,35.606 L220.327,36.993 C220.453667,37.3983333 220.643667,37.6675 220.897,37.8005 C221.150333,37.9335 221.498667,38 221.942,38 L221.942,38 L224.051,38 L224.051,25.688 C224.051,24.586 223.8895,23.5726667 223.5665,22.648 C223.2435,21.7233333 222.771667,20.9285 222.151,20.2635 C221.530333,19.5985 220.7735,19.0791667 219.8805,18.7055 C218.9875,18.3318333 217.971,18.145 216.831,18.145 C213.664333,18.145 210.96,19.171 208.718,21.223 L208.718,21.223 L209.573,22.724 C209.712333,22.9646667 209.896,23.1673333 210.124,23.332 C210.352,23.4966667 210.624333,23.579 210.941,23.579 C211.321,23.579 211.669333,23.4903333 211.986,23.313 C212.302667,23.1356667 212.647833,22.9361667 213.0215,22.7145 C213.395167,22.4928333 213.835333,22.2933333 214.342,22.116 C214.848667,21.9386667 215.482,21.85 216.242,21.85 C217.293333,21.85 218.0945,22.1635 218.6455,22.7905 C219.1965,23.4175 219.472,24.3833333 219.472,25.688 L219.472,25.688 L219.472,26.828 C217.255333,26.8786667 215.399667,27.094 213.905,27.474 C212.410333,27.854 211.213333,28.3321667 210.314,28.9085 C209.414667,29.4848333 208.771833,30.1308333 208.3855,30.8465 C207.999167,31.5621667 207.806,32.2873333 207.806,33.022 C207.806,33.896 207.945333,34.6623333 208.224,35.321 C208.502667,35.9796667 208.892167,36.5306667 209.3925,36.974 C209.892833,37.4173333 210.491333,37.7498333 211.188,37.9715 C211.884667,38.1931667 212.644667,38.304 213.468,38.304 Z M214.931,35.074 C214.145667,35.074 213.509167,34.8966667 213.0215,34.542 C212.533833,34.1873333 212.29,33.5983333 212.29,32.775 C212.29,32.357 212.407167,31.9706667 212.6415,31.616 C212.875833,31.2613333 213.271667,30.951 213.829,30.685 C214.386333,30.419 215.124167,30.2005 216.0425,30.0295 C216.960833,29.8585 218.104,29.7413333 219.472,29.678 L219.472,29.678 L219.472,32.965 C219.13,33.3196667 218.791167,33.6268333 218.4555,33.8865 C218.119833,34.1461667 217.7715,34.3646667 217.4105,34.542 C217.0495,34.7193333 216.666333,34.8523333 216.261,34.941 C215.855667,35.0296667 215.412333,35.074 214.931,35.074 Z M233.361,38 L233.361,23.902 C233.994333,23.2686667 234.665667,22.7683333 235.375,22.401 C236.084333,22.0336667 236.844333,21.85 237.655,21.85 C238.757,21.85 239.5835,22.1761667 240.1345,22.8285 C240.6855,23.4808333 240.961,24.4023333 240.961,25.593 L240.961,25.593 L240.961,38 L245.654,38 L245.654,25.593 C245.654,24.5036667 245.5115,23.5061667 245.2265,22.6005 C244.9415,21.6948333 244.5235,20.9158333 243.9725,20.2635 C243.4215,19.6111667 242.734333,19.1045 241.911,18.7435 C241.087667,18.3825 240.144,18.202 239.08,18.202 C238.421333,18.202 237.813333,18.2653333 237.256,18.392 C236.698667,18.5186667 236.176167,18.7023333 235.6885,18.943 C235.200833,19.1836667 234.7385,19.4686667 234.3015,19.798 C233.8645,20.1273333 233.449667,20.4946667 233.057,20.9 L233.057,20.9 L232.734,19.361 C232.544,18.791 232.145,18.506 231.537,18.506 L231.537,18.506 L228.668,18.506 L228.668,38 L233.361,38 Z M257.719,38.285 C258.403,38.285 259.093333,38.2343333 259.79,38.133 C260.486667,38.0316667 261.161167,37.8575 261.8135,37.6105 C262.465833,37.3635 263.096,37.0341667 263.704,36.6225 C264.312,36.2108333 264.875667,35.701 265.395,35.093 L265.395,35.093 L264.046,33.383 C263.856,33.0916667 263.571,32.946 263.191,32.946 C262.899667,32.946 262.636833,33.0378333 262.4025,33.2215 C262.168167,33.4051667 261.892667,33.6078333 261.576,33.8295 C261.259333,34.0511667 260.869833,34.2538333 260.4075,34.4375 C259.945167,34.6211667 259.340333,34.713 258.593,34.713 C257.845667,34.713 257.174333,34.5705 256.579,34.2855 C255.983667,34.0005 255.477,33.5825 255.059,33.0315 C254.641,32.4805 254.321167,31.7996667 254.0995,30.989 C253.877833,30.1783333 253.767,29.2536667 253.767,28.215 C253.767,27.2143333 253.868333,26.3181667 254.071,25.5265 C254.273667,24.7348333 254.580833,24.0603333 254.9925,23.503 C255.404167,22.9456667 255.920333,22.5181667 256.541,22.2205 C257.161667,21.9228333 257.883667,21.774 258.707,21.774 C259.353,21.774 259.8945,21.8468333 260.3315,21.9925 C260.7685,22.1381667 261.145333,22.3028333 261.462,22.4865 C261.778667,22.6701667 262.051,22.8348333 262.279,22.9805 C262.507,23.1261667 262.741333,23.199 262.982,23.199 C263.235333,23.199 263.4285,23.1483333 263.5615,23.047 C263.6945,22.9456667 263.830667,22.8063333 263.97,22.629 L263.97,22.629 L265.205,20.919 C264.331,20.045 263.346167,19.3736667 262.2505,18.905 C261.154833,18.4363333 259.878667,18.202 258.422,18.202 C256.889333,18.202 255.534,18.4553333 254.356,18.962 C253.178,19.4686667 252.19,20.1685 251.392,21.0615 C250.594,21.9545 249.989167,23.0121667 249.5775,24.2345 C249.165833,25.4568333 248.96,26.7836667 248.96,28.215 C248.96,29.811 249.191167,31.2328333 249.6535,32.4805 C250.115833,33.7281667 250.742833,34.7826667 251.5345,35.644 C252.326167,36.5053333 253.254,37.1608333 254.318,37.6105 C255.382,38.0601667 256.515667,38.285 257.719,38.285 Z M276.681,38.285 C277.365,38.285 278.071167,38.2343333 278.7995,38.133 C279.527833,38.0316667 280.2435,37.8575 280.9465,37.6105 C281.6495,37.3635 282.324,37.0341667 282.97,36.6225 C283.616,36.2108333 284.198667,35.701 284.718,35.093 L284.718,35.093 L283.35,33.383 C283.248667,33.2436667 283.128333,33.136 282.989,33.06 C282.849667,32.984 282.685,32.946 282.495,32.946 C282.203667,32.946 281.902833,33.0346667 281.5925,33.212 C281.282167,33.3893333 280.921167,33.5856667 280.5095,33.801 C280.097833,34.0163333 279.6165,34.2126667 279.0655,34.39 C278.5145,34.5673333 277.859,34.656 277.099,34.656 C275.553667,34.656 274.312333,34.1873333 273.375,33.25 C272.437667,32.3126667 271.899333,30.8433333 271.76,28.842 L271.76,28.842 L283.806,28.842 C284.021333,28.842 284.198667,28.8135 284.338,28.7565 C284.477333,28.6995 284.588167,28.6045 284.6705,28.4715 C284.752833,28.3385 284.809833,28.1548333 284.8415,27.9205 C284.873167,27.6861667 284.889,27.3916667 284.889,27.037 C284.889,25.631 284.68,24.3801667 284.262,23.2845 C283.844,22.1888333 283.261333,21.2641667 282.514,20.5105 C281.766667,19.7568333 280.876833,19.1836667 279.8445,18.791 C278.812167,18.3983333 277.681667,18.202 276.453,18.202 C274.996333,18.202 273.6885,18.4553333 272.5295,18.962 C271.3705,19.4686667 270.388833,20.1558333 269.5845,21.0235 C268.780167,21.8911667 268.162667,22.9108333 267.732,24.0825 C267.301333,25.2541667 267.086,26.505 267.086,27.835 C267.086,29.545 267.333,31.0491667 267.827,32.3475 C268.321,33.6458333 268.998667,34.7351667 269.86,35.6155 C270.721333,36.4958333 271.734667,37.1608333 272.9,37.6105 C274.065333,38.0601667 275.325667,38.285 276.681,38.285 Z M280.671,26.011 L271.855,26.011 C272.070333,24.5923333 272.564333,23.4966667 273.337,22.724 C274.109667,21.9513333 275.18,21.565 276.548,21.565 C277.244667,21.565 277.852667,21.6821667 278.372,21.9165 C278.891333,22.1508333 279.322,22.4706667 279.664,22.876 C280.006,23.2813333 280.259333,23.7531667 280.424,24.2915 C280.588667,24.8298333 280.671,25.403 280.671,26.011 L280.671,26.011 Z M290.285,38 C290.715667,38 291.079833,37.8796667 291.3775,37.639 C291.675167,37.3983333 291.874667,37.1323333 291.976,36.841 L291.976,36.841 L294.028,31.236 L305.409,31.236 L307.461,36.841 C307.587667,37.1703333 307.7935,37.4458333 308.0785,37.6675 C308.3635,37.8891667 308.727667,38 309.171,38 L309.171,38 L313.123,38 L302.331,10.526 L297.106,10.526 L286.314,38 L290.285,38 Z M304.098,27.626 L295.339,27.626 L298.683,18.525 C298.847667,18.107 299.0155,17.6193333 299.1865,17.062 C299.3575,16.5046667 299.531667,15.903 299.709,15.257 C299.886333,15.903 300.066833,16.5015 300.2505,17.0525 C300.434167,17.6035 300.602,18.0816667 300.754,18.487 L300.754,18.487 L304.098,27.626 Z M320.381,44.365 L320.381,36.385 C320.989,36.9803333 321.676167,37.4458333 322.4425,37.7815 C323.208833,38.1171667 324.143,38.285 325.245,38.285 C326.524333,38.285 327.680167,38.0285 328.7125,37.5155 C329.744833,37.0025 330.625167,36.29 331.3535,35.378 C332.081833,34.466 332.642333,33.3893333 333.035,32.148 C333.427667,30.9066667 333.624,29.5576667 333.624,28.101 C333.624,26.505 333.449833,25.0895 333.1015,23.8545 C332.753167,22.6195 332.259167,21.5808333 331.6195,20.7385 C330.979833,19.8961667 330.219833,19.2533333 329.3395,18.81 C328.459167,18.3666667 327.487,18.145 326.423,18.145 C325.055,18.145 323.861167,18.4236667 322.8415,18.981 C321.821833,19.5383333 320.919333,20.2666667 320.134,21.166 L320.134,21.166 L319.754,19.361 C319.690667,19.0696667 319.551333,18.8543333 319.336,18.715 C319.120667,18.5756667 318.861,18.506 318.557,18.506 L318.557,18.506 L315.688,18.506 L315.688,44.365 L320.381,44.365 Z M324.143,34.713 C323.421,34.713 322.7465,34.5831667 322.1195,34.3235 C321.4925,34.0638333 320.913,33.6046667 320.381,32.946 L320.381,32.946 L320.381,24.206 C320.976333,23.4586667 321.619167,22.8791667 322.3095,22.4675 C322.999833,22.0558333 323.832667,21.85 324.808,21.85 C325.428667,21.85 325.982833,21.964 326.4705,22.192 C326.958167,22.42 327.373,22.781 327.715,23.275 C328.057,23.769 328.319833,24.4118333 328.5035,25.2035 C328.687167,25.9951667 328.779,26.961 328.779,28.101 C328.779,29.2283333 328.671333,30.2068333 328.456,31.0365 C328.240667,31.8661667 327.9335,32.5533333 327.5345,33.098 C327.1355,33.6426667 326.647833,34.048 326.0715,34.314 C325.495167,34.58 324.852333,34.713 324.143,34.713 Z M341.87,44.365 L341.87,36.385 C342.478,36.9803333 343.165167,37.4458333 343.9315,37.7815 C344.697833,38.1171667 345.632,38.285 346.734,38.285 C348.013333,38.285 349.169167,38.0285 350.2015,37.5155 C351.233833,37.0025 352.114167,36.29 352.8425,35.378 C353.570833,34.466 354.131333,33.3893333 354.524,32.148 C354.916667,30.9066667 355.113,29.5576667 355.113,28.101 C355.113,26.505 354.938833,25.0895 354.5905,23.8545 C354.242167,22.6195 353.748167,21.5808333 353.1085,20.7385 C352.468833,19.8961667 351.708833,19.2533333 350.8285,18.81 C349.948167,18.3666667 348.976,18.145 347.912,18.145 C346.544,18.145 345.350167,18.4236667 344.3305,18.981 C343.310833,19.5383333 342.408333,20.2666667 341.623,21.166 L341.623,21.166 L341.243,19.361 C341.179667,19.0696667 341.040333,18.8543333 340.825,18.715 C340.609667,18.5756667 340.35,18.506 340.046,18.506 L340.046,18.506 L337.177,18.506 L337.177,44.365 L341.87,44.365 Z M345.632,34.713 C344.91,34.713 344.2355,34.5831667 343.6085,34.3235 C342.9815,34.0638333 342.402,33.6046667 341.87,32.946 L341.87,32.946 L341.87,24.206 C342.465333,23.4586667 343.108167,22.8791667 343.7985,22.4675 C344.488833,22.0558333 345.321667,21.85 346.297,21.85 C346.917667,21.85 347.471833,21.964 347.9595,22.192 C348.447167,22.42 348.862,22.781 349.204,23.275 C349.546,23.769 349.808833,24.4118333 349.9925,25.2035 C350.176167,25.9951667 350.268,26.961 350.268,28.101 C350.268,29.2283333 350.160333,30.2068333 349.945,31.0365 C349.729667,31.8661667 349.4225,32.5533333 349.0235,33.098 C348.6245,33.6426667 348.136833,34.048 347.5605,34.314 C346.984167,34.58 346.341333,34.713 345.632,34.713 Z" id="InsuranceApp"></path>
        </g>
    </g>
</svg>