<svg width="20" height="18" viewBox="0 0 20 18" fill="none" xmlns="http://www.w3.org/2000/svg">
    <path d="M3.33333 15.75V16.875C3.33333 17.1937 3.22685 17.4609 3.01389 17.6766C2.80093 17.8922 2.53704 18 2.22222 18H1.11111C0.796296 18 0.532407 17.8922 0.319444 17.6766C0.106481 17.4609 0 17.1937 0 16.875V7.875L2.33333 1.125C2.44444 0.7875 2.64352 0.515625 2.93056 0.309375C3.21759 0.103125 3.53704 0 3.88889 0H16.1111C16.463 0 16.7824 0.103125 17.0694 0.309375C17.3565 0.515625 17.5556 0.7875 17.6667 1.125L20 7.875V16.875C20 17.1937 19.8935 17.4609 19.6806 17.6766C19.4676 17.8922 19.2037 18 18.8889 18H17.7778C17.463 18 17.1991 17.8922 16.9861 17.6766C16.7731 17.4609 16.6667 17.1937 16.6667 16.875V15.75H3.33333ZM3.11111 5.625H16.8889L15.7222 2.25H4.27778L3.11111 5.625ZM5 12.375C5.46296 12.375 5.85648 12.2109 6.18056 11.8828C6.50463 11.5547 6.66667 11.1562 6.66667 10.6875C6.66667 10.2187 6.50463 9.82031 6.18056 9.49219C5.85648 9.16406 5.46296 9 5 9C4.53704 9 4.14352 9.16406 3.81944 9.49219C3.49537 9.82031 3.33333 10.2187 3.33333 10.6875C3.33333 11.1562 3.49537 11.5547 3.81944 11.8828C4.14352 12.2109 4.53704 12.375 5 12.375ZM15 12.375C15.463 12.375 15.8565 12.2109 16.1806 11.8828C16.5046 11.5547 16.6667 11.1562 16.6667 10.6875C16.6667 10.2187 16.5046 9.82031 16.1806 9.49219C15.8565 9.16406 15.463 9 15 9C14.537 9 14.1435 9.16406 13.8194 9.49219C13.4954 9.82031 13.3333 10.2187 13.3333 10.6875C13.3333 11.1562 13.4954 11.5547 13.8194 11.8828C14.1435 12.2109 14.537 12.375 15 12.375ZM2.22222 13.5H17.7778V7.875H2.22222V13.5Z" fill="#4C4CDE"/>
</svg>
